<?xml version="1.0" encoding="UTF-8" standalone="no"?>
<svg xmlns="http://www.w3.org/2000/svg" width="400" height="400" version="1.0">
  <g fill-rule="evenodd">
    <path fill="#343434" d="M0 0h50v50H0z"/>
    <path fill="#373737" d="M50 0h50v50H50z"/>
    <path fill="#3d3d3d" d="M100 0h50v50h-50z"/>
    <path fill="#424242" d="M150 0h50v50h-50z"/>
    <path fill="#464646" d="M200 0h50v50h-50z"/>
    <path fill="#3d3d3d" d="M250 0h50v50h-50z"/>
    <path fill="#404040" d="M300 0h50v50h-50z"/>
    <path fill="#494949" d="M350 0h50v50h-50z"/>
    <path fill="#3f3f3f" d="M0 50h50v50H0z"/>
    <path fill="#3b3b3b" d="M50 50h50v50H50z"/>
    <path fill="#373737" d="M100 50h50v50h-50z"/>
    <path fill="#5a5a5a" d="M150 50h50v50h-50z"/>
    <path fill="#6d6d6d" d="M200 50h50v50h-50z"/>
    <path fill="#555" d="M250 50h50v50h-50z"/>
    <path fill="#454545" d="M300 50h50v50h-50z"/>
    <path fill="#484848" d="M350 50h50v50h-50z"/>
    <path fill="#3e3e3e" d="M0 100h50v50H0z"/>
    <path fill="#3b3b3b" d="M50 100h50v50H50z"/>
    <path fill="#444" d="M100 100h50v50h-50z"/>
    <path fill="#717171" d="M150 100h50v50h-50z"/>
    <path fill="#909090" d="M200 100h50v50h-50z"/>
    <path fill="#686868" d="M250 100h50v50h-50z"/>
    <path fill="#424242" d="M300 100h50v50h-50z"/>
    <path fill="#494949" d="M350 100h50v50h-50z"/>
    <path fill="#3f3f3f" d="M0 150h50v50H0z"/>
    <path fill="#3a3a3a" d="M50 150h50v50H50z"/>
    <path fill="#474747" d="M100 150h50v50h-50z"/>
    <path fill="#7a7a7a" d="M150 150h50v50h-50z"/>
    <path fill="#9a9a9a" d="M200 150h50v50h-50z"/>
    <path fill="#6a6a6a" d="M250 150h50v50h-50z"/>
    <path fill="#464646" d="M300 150h50v50h-50z"/>
    <path fill="#454545" d="M350 150h50v50h-50z"/>
    <path fill="#434343" d="M0 200h50v50H0z"/>
    <path fill="#3d3d3d" d="M50 200h50v50H50z"/>
    <path fill="#444" d="M100 200h50v50h-50z"/>
    <path fill="#686868" d="M150 200h50v50h-50z"/>
    <path fill="#7e7e7e" d="M200 200h50v50h-50z"/>
    <path fill="#585858" d="M250 200h50v50h-50z"/>
    <path fill="#444" d="M300 200h50v50h-50z"/>
    <path fill="#464646" d="M350 200h50v50h-50z"/>
    <path fill="#4f4f4f" d="M0 250h50v50H0z"/>
    <path fill="#414141" d="M50 250h50v50H50z"/>
    <path fill="#3c3c3c" d="M100 250h50v50h-50z"/>
    <path fill="#464646" d="M150 250h50v50h-50z"/>
    <path fill="#4d4d4d" d="M200 250h50v50h-50z"/>
    <path fill="#444" d="M250 250h50v50h-50z"/>
    <path fill="#3a3a3a" d="M300 250h50v50h-50z"/>
    <path fill="#4b4b4b" d="M350 250h50v50h-50z"/>
    <path fill="#555" d="M0 300h50v50H0z"/>
    <path fill="#474747" d="M50 300h50v50H50z"/>
    <path fill="#404040" d="M100 300h50v50h-50z"/>
    <path fill="#3b3b3b" d="M150 300h50v50h-50z"/>
    <path fill="#373737" d="M200 300h50v50h-50z"/>
    <path fill="#3d3d3d" d="M250 300h50v50h-50z"/>
    <path fill="#414141" d="M300 300h50v50h-50z"/>
    <path fill="#535353" d="M350 300h50v50h-50z"/>
    <path fill="#575757" d="M0 350h50v50H0z"/>
    <path fill="#4f4f4f" d="M50 350h50v50H50z"/>
    <path fill="#454545" d="M100 350h50v50h-50z"/>
    <path fill="#444" d="M150 350h50v50h-50z"/>
    <path fill="#414141" d="M200 350h50v50h-50z"/>
    <path fill="#4c4c4c" d="M250 350h50v50h-50z"/>
    <path fill="#4e4e4e" d="M300 350h50v50h-50z"/>
    <path fill="#5e5e5e" d="M350 350h50v50h-50z"/>
  </g>
</svg>